<svg xmlns="http://www.w3.org/2000/svg" xmlns:xlink="http://www.w3.org/1999/xlink" width="125" zoomAndPan="magnify" viewBox="0 0 93.75 30.000001" height="40" preserveAspectRatio="xMidYMid meet" version="1.0"><defs><g/><clipPath id="f0ae7eac2a"><path d="M 5.042969 3.027344 L 88.511719 3.027344 L 88.511719 26 L 5.042969 26 Z M 5.042969 3.027344 " clip-rule="nonzero"/></clipPath><clipPath id="f68e5901ed"><path d="M 10.863281 3.027344 L 82.636719 3.027344 C 84.179688 3.027344 85.652344 3.640625 86.742188 4.730469 C 87.832031 5.816406 88.441406 7.292969 88.441406 8.832031 L 88.441406 20.191406 C 88.441406 21.730469 87.832031 23.207031 86.742188 24.292969 C 85.652344 25.382812 84.179688 25.992188 82.636719 25.992188 L 10.863281 25.992188 C 9.320312 25.992188 7.847656 25.382812 6.757812 24.292969 C 5.667969 23.207031 5.058594 21.730469 5.058594 20.191406 L 5.058594 8.832031 C 5.058594 7.292969 5.667969 5.816406 6.757812 4.730469 C 7.847656 3.640625 9.320312 3.027344 10.863281 3.027344 Z M 10.863281 3.027344 " clip-rule="nonzero"/></clipPath><clipPath id="b53887c20e"><path d="M 7.789062 5.117188 L 48.777344 5.117188 L 48.777344 23.820312 L 7.789062 23.820312 Z M 7.789062 5.117188 " clip-rule="nonzero"/></clipPath><clipPath id="bfb5ebaf5a"><path d="M 10.867188 5.117188 L 45.652344 5.117188 C 46.46875 5.117188 47.25 5.441406 47.828125 6.015625 C 48.40625 6.59375 48.730469 7.378906 48.730469 8.191406 L 48.730469 20.742188 C 48.730469 21.558594 48.40625 22.339844 47.828125 22.917969 C 47.25 23.496094 46.46875 23.820312 45.652344 23.820312 L 10.867188 23.820312 C 10.050781 23.820312 9.269531 23.496094 8.691406 22.917969 C 8.113281 22.339844 7.789062 21.558594 7.789062 20.742188 L 7.789062 8.191406 C 7.789062 7.378906 8.113281 6.59375 8.691406 6.015625 C 9.269531 5.441406 10.050781 5.117188 10.867188 5.117188 Z M 10.867188 5.117188 " clip-rule="nonzero"/></clipPath></defs><g clip-path="url(#f0ae7eac2a)"><g clip-path="url(#f68e5901ed)"><path stroke-linecap="butt" transform="matrix(0.725806, 0, 0, 0.725806, 5.057439, 3.029017)" fill="none" stroke-linejoin="miter" d="M 7.99916 -0.00230593 L 106.887008 -0.00230593 C 109.012877 -0.00230593 111.04187 0.842659 112.543432 2.344222 C 114.044995 3.840402 114.884578 5.874777 114.884578 7.995264 L 114.884578 23.645958 C 114.884578 25.766444 114.044995 27.800819 112.543432 29.297 C 111.04187 30.798562 109.012877 31.638146 106.887008 31.638146 L 7.99916 31.638146 C 5.873292 31.638146 3.844299 30.798562 2.342737 29.297 C 0.841174 27.800819 0.0015909 25.766444 0.0015909 23.645958 L 0.0015909 7.995264 C 0.0015909 5.874777 0.841174 3.840402 2.342737 2.344222 C 3.844299 0.842659 5.873292 -0.00230593 7.99916 -0.00230593 Z M 7.99916 -0.00230593 " stroke="#4882e6" stroke-width="2" stroke-opacity="1" stroke-miterlimit="4"/></g></g><g clip-path="url(#b53887c20e)"><g clip-path="url(#bfb5ebaf5a)"><path fill="#4882e6" d="M 7.789062 5.117188 L 48.707031 5.117188 L 48.707031 23.820312 L 7.789062 23.820312 Z M 7.789062 5.117188 " fill-opacity="1" fill-rule="nonzero"/></g></g><g fill="#ffffff" fill-opacity="1"><g transform="translate(21.529048, 16.821433)"><g><path d="M 2.34375 0 L 1.71875 0 L 1.71875 -4.296875 L 0.171875 -4.296875 L 0.171875 -4.859375 L 3.890625 -4.859375 L 3.890625 -4.296875 L 2.34375 -4.296875 Z M 2.34375 0 "/></g></g></g><g fill="#ffffff" fill-opacity="1"><g transform="translate(26.154283, 16.821433)"><g><path d="M 4.765625 0 L 4.09375 0 L 3.640625 -1.109375 L 1.1875 -1.109375 L 0.71875 0 L 0.046875 0 L 2.109375 -4.859375 L 2.71875 -4.859375 Z M 2.390625 -3.96875 L 1.40625 -1.640625 L 3.40625 -1.640625 L 2.4375 -3.96875 L 2.421875 -4.0625 L 2.40625 -4.0625 Z M 2.390625 -3.96875 "/></g></g></g><g fill="#ffffff" fill-opacity="1"><g transform="translate(31.530902, 16.821433)"><g><path d="M 2.671875 0 L 2.046875 0 L 2.046875 -1.859375 L 0.078125 -4.859375 L 0.8125 -4.859375 L 2.359375 -2.4375 L 3.890625 -4.859375 L 4.640625 -4.859375 L 2.671875 -1.875 Z M 2.671875 0 "/></g></g></g><g fill="#4882e6" fill-opacity="1"><g transform="translate(62.113383, 16.821433)"><g><path d="M 5.078125 0 L 3.875 0 L 3.5625 -0.796875 L 1.53125 -0.796875 L 1.21875 0 L 0.015625 0 L 2.015625 -4.875 L 3.078125 -4.875 Z M 2.515625 -3.25 L 1.90625 -1.734375 L 3.1875 -1.734375 L 2.578125 -3.25 L 2.546875 -3.40625 Z M 2.515625 -3.25 "/></g></g></g><g fill="#4882e6" fill-opacity="1"><g transform="translate(67.204902, 16.821433)"><g><path d="M 1.625 0 L 0.5 0 L 0.5 -4.859375 L 1.625 -4.859375 Z M 1.625 0 "/></g></g></g></svg>