<svg xmlns="http://www.w3.org/2000/svg" xmlns:xlink="http://www.w3.org/1999/xlink" width="125" zoomAndPan="magnify" viewBox="0 0 93.75 30.000001" height="40" preserveAspectRatio="xMidYMid meet" version="1.0"><defs><clipPath id="3d5ae92f9a"><path d="M 37 2 L 56 2 L 56 27 L 37 27 Z M 37 2 " clip-rule="nonzero"/></clipPath><clipPath id="af865acf5c"><path d="M 35.789062 4.210938 L 54.453125 1.417969 L 57.996094 25.105469 L 39.332031 27.898438 Z M 35.789062 4.210938 " clip-rule="nonzero"/></clipPath><clipPath id="699acd8df0"><path d="M 35.789062 4.210938 L 54.453125 1.417969 L 57.996094 25.105469 L 39.332031 27.898438 Z M 35.789062 4.210938 " clip-rule="nonzero"/></clipPath><clipPath id="ffabc39b7e"><path d="M 42 11 L 51 11 L 51 24 L 42 24 Z M 42 11 " clip-rule="nonzero"/></clipPath><clipPath id="eb8383cb3c"><path d="M 35.789062 4.210938 L 54.453125 1.417969 L 57.996094 25.105469 L 39.332031 27.898438 Z M 35.789062 4.210938 " clip-rule="nonzero"/></clipPath><clipPath id="75826fa982"><path d="M 35.789062 4.210938 L 54.453125 1.417969 L 57.996094 25.105469 L 39.332031 27.898438 Z M 35.789062 4.210938 " clip-rule="nonzero"/></clipPath></defs><g clip-path="url(#3d5ae92f9a)"><g clip-path="url(#af865acf5c)"><g clip-path="url(#699acd8df0)"><path fill="#ffffff" d="M 54.226562 7.851562 C 53.726562 6.257812 52.84375 4.324219 51.867188 3.21875 C 51.429688 2.722656 50.953125 2.375 50.449219 2.25 C 49.859375 2.105469 49.289062 2.257812 48.773438 2.808594 C 48.285156 3.324219 47.847656 4.253906 47.496094 5.722656 L 43.445312 6.328125 C 42.683594 5.027344 41.992188 4.269531 41.375 3.914062 C 40.71875 3.539062 40.132812 3.5625 39.609375 3.875 C 39.164062 4.136719 38.808594 4.609375 38.535156 5.214844 C 37.921875 6.566406 37.644531 8.699219 37.636719 10.371094 C 37.210938 11.40625 37.050781 12.566406 37.226562 13.746094 L 37.324219 14.378906 C 37.714844 17.003906 39.664062 19.027344 42.09375 19.648438 C 42.085938 20.152344 42.113281 20.640625 42.179688 21.109375 C 42.375 22.511719 42.894531 23.71875 43.695312 24.613281 C 44.519531 25.527344 45.625 26.109375 46.976562 26.238281 C 47.449219 26.285156 47.957031 26.273438 48.496094 26.199219 L 48.503906 26.195312 C 49.042969 26.109375 49.53125 25.972656 49.96875 25.792969 C 51.222656 25.273438 52.113281 24.394531 52.628906 23.273438 C 53.132812 22.1875 53.277344 20.882812 53.054688 19.480469 C 52.980469 19.015625 52.863281 18.542969 52.710938 18.0625 C 53.425781 17.625 54.042969 17.054688 54.535156 16.390625 C 55.515625 15.066406 55.992188 13.371094 55.730469 11.628906 L 55.632812 10.992188 C 55.453125 9.792969 54.953125 8.722656 54.226562 7.851562 Z M 49.703125 3.683594 C 49.863281 3.511719 50.011719 3.457031 50.148438 3.492188 C 50.375 3.546875 50.636719 3.757812 50.910156 4.066406 C 51.390625 4.609375 51.851562 5.402344 52.242188 6.253906 C 51.984375 6.117188 51.71875 6.003906 51.445312 5.902344 C 50.75 4.535156 50.011719 3.933594 49.527344 5.527344 C 49.308594 5.519531 49.085938 5.523438 48.863281 5.539062 C 49.121094 4.589844 49.40625 4 49.703125 3.683594 Z M 39.699219 5.746094 C 39.871094 5.367188 40.058594 5.089844 40.257812 4.972656 C 40.378906 4.898438 40.539062 4.90625 40.738281 5.023438 C 41.117188 5.238281 41.5625 5.722656 42.089844 6.550781 C 41.914062 6.59375 41.742188 6.644531 41.570312 6.699219 C 40.667969 5.363281 40.140625 6.105469 39.875 7.558594 C 39.585938 7.761719 39.316406 7.992188 39.066406 8.238281 C 39.191406 7.304688 39.398438 6.40625 39.699219 5.746094 Z M 51.46875 22.738281 C 51.085938 23.566406 50.425781 24.21875 49.484375 24.605469 C 49.128906 24.753906 48.738281 24.863281 48.3125 24.933594 C 47.882812 24.992188 47.476562 25 47.09375 24.964844 C 46.082031 24.867188 45.253906 24.4375 44.648438 23.757812 C 44.019531 23.058594 43.605469 22.082031 43.445312 20.929688 C 43.398438 20.582031 43.371094 20.21875 43.371094 19.839844 C 43.78125 19.859375 44.199219 19.839844 44.621094 19.777344 L 46.992188 19.421875 L 47.15625 20.515625 C 46.902344 20.636719 46.683594 20.820312 46.519531 21.042969 C 46.257812 21.398438 46.132812 21.851562 46.203125 22.324219 C 46.273438 22.792969 46.527344 23.191406 46.882812 23.453125 C 47.238281 23.71875 47.691406 23.84375 48.164062 23.773438 C 48.632812 23.703125 49.03125 23.449219 49.292969 23.09375 C 49.558594 22.738281 49.683594 22.285156 49.613281 21.8125 C 49.542969 21.34375 49.289062 20.945312 48.933594 20.679688 C 48.710938 20.519531 48.453125 20.40625 48.171875 20.363281 L 48.011719 19.269531 L 50.332031 18.921875 C 50.75 18.859375 51.15625 18.757812 51.542969 18.617188 C 51.652344 18.980469 51.734375 19.335938 51.789062 19.679688 C 51.972656 20.832031 51.867188 21.882812 51.46875 22.738281 Z M 47.730469 20.871094 C 48.058594 20.820312 48.378906 20.910156 48.628906 21.09375 C 48.878906 21.28125 49.058594 21.558594 49.105469 21.890625 C 49.15625 22.21875 49.066406 22.539062 48.882812 22.789062 C 48.699219 23.039062 48.417969 23.21875 48.085938 23.269531 C 47.757812 23.316406 47.4375 23.226562 47.1875 23.042969 C 46.9375 22.859375 46.757812 22.578125 46.710938 22.25 C 46.660156 21.917969 46.75 21.597656 46.933594 21.347656 C 47.117188 21.097656 47.398438 20.917969 47.730469 20.871094 Z M 54.460938 11.816406 C 54.667969 13.210938 54.285156 14.566406 53.503906 15.625 C 52.722656 16.683594 51.539062 17.445312 50.140625 17.652344 L 44.429688 18.507812 C 41.636719 18.925781 39.007812 16.984375 38.59375 14.191406 L 38.496094 13.554688 C 38.289062 12.160156 38.667969 10.804688 39.453125 9.746094 C 40.234375 8.6875 41.417969 7.925781 42.816406 7.71875 L 48.527344 6.863281 C 51.320312 6.445312 53.945312 8.390625 54.363281 11.183594 Z M 52.242188 11.585938 L 52.3125 12.050781 C 52.464844 13.070312 52.1875 14.0625 51.613281 14.835938 C 51.042969 15.609375 50.175781 16.164062 49.15625 16.316406 L 44.980469 16.941406 C 42.9375 17.246094 41.019531 15.828125 40.714844 13.785156 L 40.644531 13.320312 C 40.492188 12.300781 40.769531 11.308594 41.34375 10.539062 C 41.914062 9.765625 42.78125 9.207031 43.800781 9.054688 L 47.976562 8.429688 C 50.019531 8.125 51.9375 9.546875 52.242188 11.585938 Z M 52.242188 11.585938 " fill-opacity="1" fill-rule="evenodd"/></g></g></g><g clip-path="url(#ffabc39b7e)"><g clip-path="url(#eb8383cb3c)"><g clip-path="url(#75826fa982)"><path fill="#4882e6" d="M 48.628906 21.09375 C 48.878906 21.277344 49.058594 21.558594 49.105469 21.890625 C 49.15625 22.21875 49.066406 22.539062 48.882812 22.789062 C 48.699219 23.039062 48.417969 23.21875 48.085938 23.265625 C 47.757812 23.316406 47.4375 23.226562 47.1875 23.042969 C 46.9375 22.859375 46.757812 22.578125 46.710938 22.246094 C 46.660156 21.917969 46.75 21.597656 46.933594 21.347656 C 47.117188 21.097656 47.398438 20.917969 47.730469 20.871094 C 48.058594 20.820312 48.378906 20.910156 48.628906 21.09375 Z M 44.277344 11.9375 C 44.054688 11.863281 43.820312 11.847656 43.597656 11.886719 C 43.375 11.925781 43.160156 12.015625 42.976562 12.152344 C 42.558594 12.457031 42.269531 12.992188 42.308594 13.667969 C 42.3125 13.738281 42.34375 13.792969 42.394531 13.835938 C 42.449219 13.878906 42.511719 13.894531 42.578125 13.882812 L 42.628906 13.875 C 42.746094 13.855469 42.828125 13.753906 42.820312 13.636719 C 42.792969 13.148438 42.988281 12.773438 43.277344 12.566406 C 43.398438 12.476562 43.539062 12.414062 43.683594 12.390625 C 43.824219 12.367188 43.976562 12.375 44.117188 12.421875 C 44.46875 12.539062 44.792969 12.886719 44.949219 13.535156 C 44.976562 13.652344 45.089844 13.726562 45.210938 13.707031 L 45.257812 13.699219 C 45.324219 13.6875 45.375 13.65625 45.414062 13.597656 C 45.449219 13.542969 45.460938 13.484375 45.445312 13.417969 C 45.242188 12.574219 44.785156 12.105469 44.277344 11.9375 Z M 49.734375 11.140625 C 49.515625 11.066406 49.285156 11.039062 49.0625 11.070312 C 48.835938 11.097656 48.617188 11.179688 48.425781 11.316406 C 47.992188 11.625 47.691406 12.207031 47.742188 13.074219 C 47.746094 13.140625 47.777344 13.195312 47.828125 13.238281 C 47.878906 13.28125 47.9375 13.296875 48.003906 13.289062 L 48.054688 13.28125 C 48.175781 13.265625 48.261719 13.160156 48.253906 13.039062 C 48.214844 12.378906 48.421875 11.949219 48.722656 11.734375 C 48.84375 11.648438 48.984375 11.59375 49.128906 11.578125 C 49.273438 11.558594 49.425781 11.574219 49.570312 11.625 C 49.902344 11.742188 50.203125 12.042969 50.316406 12.515625 C 50.347656 12.628906 50.453125 12.703125 50.570312 12.6875 L 50.621094 12.679688 C 50.6875 12.671875 50.742188 12.640625 50.78125 12.582031 C 50.820312 12.527344 50.832031 12.464844 50.816406 12.398438 C 50.65625 11.734375 50.226562 11.308594 49.734375 11.140625 Z M 49.734375 11.140625 " fill-opacity="1" fill-rule="nonzero"/></g></g></g></svg>