<svg xmlns="http://www.w3.org/2000/svg" xmlns:xlink="http://www.w3.org/1999/xlink" width="125" zoomAndPan="magnify" viewBox="0 0 93.75 30.000001" height="40" preserveAspectRatio="xMidYMid meet" version="1.0"><defs><g/><clipPath id="569e570b37"><path d="M 3.765625 2.675781 L 89.410156 2.675781 L 89.410156 26.628906 L 3.765625 26.628906 Z M 3.765625 2.675781 " clip-rule="nonzero"/></clipPath><clipPath id="856d746a7b"><path d="M 9.585938 2.675781 L 83.917969 2.675781 C 85.457031 2.675781 86.933594 3.289062 88.019531 4.375 C 89.109375 5.464844 89.722656 6.941406 89.722656 8.480469 L 89.722656 20.539062 C 89.722656 22.082031 89.109375 23.554688 88.019531 24.644531 C 86.933594 25.734375 85.457031 26.34375 83.917969 26.34375 L 9.585938 26.34375 C 8.046875 26.34375 6.570312 25.734375 5.484375 24.644531 C 4.394531 23.554688 3.78125 22.082031 3.78125 20.539062 L 3.78125 8.480469 C 3.78125 6.941406 4.394531 5.464844 5.484375 4.375 C 6.570312 3.289062 8.046875 2.675781 9.585938 2.675781 Z M 9.585938 2.675781 " clip-rule="nonzero"/></clipPath><clipPath id="9fbba87926"><path d="M 6.59375 4.828125 L 48.839844 4.828125 L 48.839844 24.105469 L 6.59375 24.105469 Z M 6.59375 4.828125 " clip-rule="nonzero"/></clipPath><clipPath id="73e26c57fe"><path d="M 9.671875 4.828125 L 45.710938 4.828125 C 46.527344 4.828125 47.3125 5.152344 47.890625 5.730469 C 48.464844 6.304688 48.789062 7.089844 48.789062 7.90625 L 48.789062 21.027344 C 48.789062 21.84375 48.464844 22.628906 47.890625 23.203125 C 47.3125 23.78125 46.527344 24.105469 45.710938 24.105469 L 9.671875 24.105469 C 8.855469 24.105469 8.074219 23.78125 7.496094 23.203125 C 6.917969 22.628906 6.59375 21.84375 6.59375 21.027344 L 6.59375 7.90625 C 6.59375 7.089844 6.917969 6.304688 7.496094 5.730469 C 8.074219 5.152344 8.855469 4.828125 9.671875 4.828125 Z M 9.671875 4.828125 " clip-rule="nonzero"/></clipPath></defs><g clip-path="url(#569e570b37)"><g clip-path="url(#856d746a7b)"><path stroke-linecap="butt" transform="matrix(0.725806, 0, 0, 0.725806, 3.782605, 2.676548)" fill="none" stroke-linejoin="miter" d="M 7.995702 -0.00105623 L 110.408724 -0.00105623 C 112.52921 -0.00105623 114.563585 0.843909 116.059765 2.34009 C 117.561328 3.841652 118.406293 5.876027 118.406293 7.996513 L 118.406293 24.610576 C 118.406293 26.736444 117.561328 28.765437 116.059765 30.267 C 114.563585 31.768562 112.52921 32.608145 110.408724 32.608145 L 7.995702 32.608145 C 5.875216 32.608145 3.840841 31.768562 2.34466 30.267 C 0.843098 28.765437 -0.00186754 26.736444 -0.00186754 24.610576 L -0.00186754 7.996513 C -0.00186754 5.876027 0.843098 3.841652 2.34466 2.34009 C 3.840841 0.843909 5.875216 -0.00105623 7.995702 -0.00105623 Z M 7.995702 -0.00105623 " stroke="#ffffff" stroke-width="2" stroke-opacity="1" stroke-miterlimit="4"/></g></g><g clip-path="url(#9fbba87926)"><g clip-path="url(#73e26c57fe)"><path fill="#ffffff" d="M 6.59375 4.828125 L 48.765625 4.828125 L 48.765625 24.105469 L 6.59375 24.105469 Z M 6.59375 4.828125 " fill-opacity="1" fill-rule="nonzero"/></g></g><g fill="#320580" fill-opacity="1"><g transform="translate(20.75504, 16.892171)"><g><path d="M 2.421875 0 L 1.765625 0 L 1.765625 -4.421875 L 0.1875 -4.421875 L 0.1875 -5.015625 L 4 -5.015625 L 4 -4.421875 L 2.421875 -4.421875 Z M 2.421875 0 "/></g></g></g><g fill="#320580" fill-opacity="1"><g transform="translate(25.522197, 16.892171)"><g><path d="M 4.921875 0 L 4.21875 0 L 3.75 -1.140625 L 1.21875 -1.140625 L 0.734375 0 L 0.046875 0 L 2.171875 -5.015625 L 2.796875 -5.015625 Z M 2.453125 -4.09375 L 1.453125 -1.6875 L 3.515625 -1.6875 L 2.5 -4.09375 L 2.484375 -4.171875 Z M 2.453125 -4.09375 "/></g></g></g><g fill="#320580" fill-opacity="1"><g transform="translate(31.063792, 16.892171)"><g><path d="M 2.75 0 L 2.09375 0 L 2.09375 -1.921875 L 0.078125 -5.015625 L 0.84375 -5.015625 L 2.421875 -2.5 L 4 -5.015625 L 4.78125 -5.015625 L 2.75 -1.921875 Z M 2.75 0 "/></g></g></g><g fill="#ffffff" fill-opacity="1"><g transform="translate(62.584675, 16.892171)"><g><path d="M 5.21875 0 L 3.984375 0 L 3.671875 -0.8125 L 1.578125 -0.8125 L 1.25 0 L 0.015625 0 L 2.078125 -5.015625 L 3.171875 -5.015625 Z M 2.578125 -3.34375 L 1.953125 -1.78125 L 3.28125 -1.78125 L 2.65625 -3.34375 L 2.625 -3.5 L 2.609375 -3.5 Z M 2.578125 -3.34375 "/></g></g></g><g fill="#ffffff" fill-opacity="1"><g transform="translate(67.832422, 16.892171)"><g><path d="M 1.6875 0 L 0.515625 0 L 0.515625 -5.015625 L 1.6875 -5.015625 Z M 1.6875 0 "/></g></g></g></svg>