<svg xmlns="http://www.w3.org/2000/svg" xmlns:xlink="http://www.w3.org/1999/xlink" width="500" zoomAndPan="magnify" viewBox="0 0 375 374.999991" height="500" preserveAspectRatio="xMidYMid meet" version="1.0"><defs><g/><clipPath id="158ad032b8"><path d="M 49.101562 149.382812 L 325.847656 149.382812 L 325.847656 225.882812 L 49.101562 225.882812 Z M 49.101562 149.382812 " clip-rule="nonzero"/></clipPath><clipPath id="b641a9d0b0"><path d="M 87.214844 149.382812 L 287.777344 149.382812 C 308.828125 149.382812 325.894531 166.449219 325.894531 187.5 C 325.894531 208.550781 308.828125 225.613281 287.777344 225.613281 L 87.214844 225.613281 C 66.167969 225.613281 49.101562 208.550781 49.101562 187.5 C 49.101562 166.449219 66.167969 149.382812 87.214844 149.382812 Z M 87.214844 149.382812 " clip-rule="nonzero"/></clipPath><clipPath id="dfaa2dc0e8"><path d="M 58.207031 156.308594 L 194 156.308594 L 194 218.371094 L 58.207031 218.371094 Z M 58.207031 156.308594 " clip-rule="nonzero"/></clipPath><clipPath id="49b7981f6e"><path d="M 89.242188 156.308594 L 163.023438 156.308594 C 180.160156 156.308594 194.054688 170.203125 194.054688 187.339844 C 194.054688 204.480469 180.160156 218.371094 163.023438 218.371094 L 89.242188 218.371094 C 72.101562 218.371094 58.207031 204.480469 58.207031 187.339844 C 58.207031 170.203125 72.101562 156.308594 89.242188 156.308594 Z M 89.242188 156.308594 " clip-rule="nonzero"/></clipPath></defs><rect x="-37.5" width="450" fill="#ffffff" y="-37.499999" height="449.999989" fill-opacity="1"/><rect x="-37.5" width="450" fill="#ffffff" y="-37.499999" height="449.999989" fill-opacity="1"/><g clip-path="url(#158ad032b8)"><g clip-path="url(#b641a9d0b0)"><path stroke-linecap="butt" transform="matrix(0.75, 0, 0, 0.75, 49.101493, 149.383159)" fill="none" stroke-linejoin="miter" d="M 50.817801 -0.000461987 L 318.234468 -0.000461987 C 346.302176 -0.000461987 369.057385 22.754746 369.057385 50.822455 C 369.057385 78.890163 346.302176 101.640163 318.234468 101.640163 L 50.817801 101.640163 C 22.755301 101.640163 0.0000922991 78.890163 0.0000922991 50.822455 C 0.0000922991 22.754746 22.755301 -0.000461987 50.817801 -0.000461987 Z M 50.817801 -0.000461987 " stroke="#4882e6" stroke-width="18" stroke-opacity="1" stroke-miterlimit="4"/></g></g><g clip-path="url(#dfaa2dc0e8)"><g clip-path="url(#49b7981f6e)"><path fill="#4882e6" d="M 58.207031 156.308594 L 193.972656 156.308594 L 193.972656 218.371094 L 58.207031 218.371094 Z M 58.207031 156.308594 " fill-opacity="1" fill-rule="nonzero"/></g></g><g fill="#ffffff" fill-opacity="1"><g transform="translate(103.797835, 195.149499)"><g><path d="M 7.78125 0 L 5.6875 0 L 5.6875 -14.25 L 0.578125 -14.25 L 0.578125 -16.140625 L 12.90625 -16.140625 L 12.90625 -14.25 L 7.78125 -14.25 Z M 7.78125 0 "/></g></g></g><g fill="#ffffff" fill-opacity="1"><g transform="translate(119.145404, 195.149499)"><g><path d="M 15.84375 0 L 13.609375 0 L 12.078125 -3.65625 L 3.921875 -3.65625 L 2.390625 0 L 0.15625 0 L 7 -16.140625 L 9.015625 -16.140625 Z M 7.921875 -13.1875 L 4.671875 -5.4375 L 11.328125 -5.4375 L 8.078125 -13.1875 L 8.015625 -13.46875 L 7.984375 -13.46875 Z M 7.921875 -13.1875 "/></g></g></g><g fill="#ffffff" fill-opacity="1"><g transform="translate(136.986232, 195.149499)"><g><path d="M 8.875 0 L 6.765625 0 L 6.765625 -6.1875 L 0.234375 -16.140625 L 2.71875 -16.140625 L 7.8125 -8.078125 L 7.828125 -8.078125 L 12.890625 -16.140625 L 15.390625 -16.140625 L 8.859375 -6.203125 Z M 8.875 0 "/></g></g></g><g fill="#4882e6" fill-opacity="1"><g transform="translate(238.465788, 195.149499)"><g><path d="M 16.828125 0 L 12.859375 0 L 11.8125 -2.625 L 5.078125 -2.625 L 4.03125 0 L 0.0625 0 L 6.6875 -16.15625 L 10.203125 -16.15625 Z M 8.328125 -10.796875 L 6.3125 -5.75 L 10.578125 -5.75 L 8.578125 -10.796875 L 8.46875 -11.296875 L 8.421875 -11.296875 Z M 8.328125 -10.796875 "/></g></g></g><g fill="#4882e6" fill-opacity="1"><g transform="translate(255.36059, 195.149499)"><g><path d="M 5.40625 0 L 1.65625 0 L 1.65625 -16.140625 L 5.40625 -16.140625 Z M 5.40625 0 "/></g></g></g></svg>