<?xml version="1.0" encoding="UTF-8"?>
<svg xmlns="http://www.w3.org/2000/svg" xmlns:xlink="http://www.w3.org/1999/xlink" width="125" zoomAndPan="magnify" viewBox="0 0 93.75 30.000001" height="40" preserveAspectRatio="xMidYMid meet" version="1.0">
  <defs>
    <clipPath id="2f23401b3e">
      <path d="M 37 2 L 56 2 L 56 26 L 37 26 Z M 37 2 " clip-rule="nonzero"></path>
    </clipPath>
    <clipPath id="6463f261ce">
      <path d="M 36.46875 4.847656 L 53.695312 2.269531 L 57.023438 24.519531 L 39.796875 27.097656 Z M 36.46875 4.847656 " clip-rule="nonzero"></path>
    </clipPath>
    <clipPath id="150bf7a3bf">
      <path d="M 36.46875 4.847656 L 53.695312 2.269531 L 57.023438 24.519531 L 39.796875 27.097656 Z M 36.46875 4.847656 " clip-rule="nonzero"></path>
    </clipPath>
    <clipPath id="21a0970f25">
      <path d="M 42 11 L 51 11 L 51 23 L 42 23 Z M 42 11 " clip-rule="nonzero"></path>
    </clipPath>
    <clipPath id="2733cb3e20">
      <path d="M 36.46875 4.847656 L 53.695312 2.269531 L 57.023438 24.519531 L 39.796875 27.097656 Z M 36.46875 4.847656 " clip-rule="nonzero"></path>
    </clipPath>
    <clipPath id="9abeee9f91">
      <path d="M 36.46875 4.847656 L 53.695312 2.269531 L 57.023438 24.519531 L 39.796875 27.097656 Z M 36.46875 4.847656 " clip-rule="nonzero"></path>
    </clipPath>
  </defs>
  <g clip-path="url(#2f23401b3e)">
    <g clip-path="url(#6463f261ce)">
      <g clip-path="url(#150bf7a3bf)">
        <path fill="#4882e6" d="M 53.761719 8.261719 C 53.292969 6.769531 52.464844 4.953125 51.550781 3.917969 C 51.136719 3.453125 50.691406 3.125 50.21875 3.007812 C 49.664062 2.875 49.128906 3.015625 48.644531 3.53125 C 48.1875 4.019531 47.777344 4.890625 47.449219 6.265625 L 43.648438 6.832031 C 42.933594 5.613281 42.285156 4.902344 41.707031 4.570312 C 41.089844 4.21875 40.539062 4.238281 40.046875 4.53125 C 39.632812 4.777344 39.300781 5.222656 39.042969 5.789062 C 38.464844 7.058594 38.207031 9.058594 38.199219 10.628906 C 37.800781 11.597656 37.648438 12.683594 37.816406 13.792969 L 37.902344 14.386719 C 38.273438 16.847656 40.101562 18.746094 42.378906 19.328125 C 42.371094 19.804688 42.398438 20.261719 42.460938 20.699219 C 42.644531 22.015625 43.128906 23.148438 43.882812 23.984375 C 44.652344 24.847656 45.691406 25.390625 46.957031 25.511719 C 47.402344 25.554688 47.878906 25.542969 48.386719 25.472656 L 48.394531 25.472656 C 48.898438 25.390625 49.355469 25.261719 49.769531 25.09375 C 50.945312 24.605469 51.777344 23.78125 52.261719 22.730469 C 52.738281 21.710938 52.871094 20.488281 52.660156 19.171875 C 52.589844 18.738281 52.484375 18.289062 52.339844 17.839844 C 53.011719 17.429688 53.589844 16.894531 54.050781 16.273438 C 54.96875 15.03125 55.417969 13.441406 55.171875 11.804688 L 55.082031 11.210938 C 54.914062 10.085938 54.441406 9.082031 53.761719 8.261719 Z M 49.519531 4.351562 C 49.667969 4.191406 49.808594 4.140625 49.9375 4.175781 C 50.148438 4.226562 50.394531 4.421875 50.652344 4.714844 C 51.101562 5.222656 51.53125 5.964844 51.898438 6.761719 C 51.65625 6.636719 51.410156 6.527344 51.152344 6.433594 C 50.5 5.152344 49.808594 4.585938 49.351562 6.085938 C 49.148438 6.078125 48.9375 6.078125 48.730469 6.09375 C 48.972656 5.203125 49.242188 4.648438 49.519531 4.351562 Z M 40.132812 6.285156 C 40.296875 5.933594 40.472656 5.671875 40.660156 5.5625 C 40.773438 5.492188 40.921875 5.5 41.109375 5.609375 C 41.464844 5.8125 41.882812 6.265625 42.375 7.042969 C 42.210938 7.082031 42.050781 7.128906 41.890625 7.179688 C 41.042969 5.929688 40.546875 6.625 40.296875 7.988281 C 40.027344 8.179688 39.773438 8.394531 39.539062 8.625 C 39.65625 7.75 39.851562 6.90625 40.132812 6.285156 Z M 51.175781 22.226562 C 50.816406 23.003906 50.195312 23.617188 49.3125 23.980469 C 48.980469 24.117188 48.613281 24.222656 48.210938 24.285156 C 47.808594 24.34375 47.429688 24.351562 47.070312 24.316406 C 46.121094 24.226562 45.34375 23.820312 44.777344 23.183594 C 44.183594 22.527344 43.800781 21.613281 43.648438 20.53125 C 43.601562 20.207031 43.578125 19.863281 43.578125 19.511719 C 43.960938 19.527344 44.355469 19.507812 44.75 19.449219 L 46.972656 19.117188 L 47.128906 20.144531 C 46.890625 20.257812 46.6875 20.429688 46.53125 20.636719 C 46.285156 20.96875 46.167969 21.398438 46.234375 21.839844 C 46.300781 22.28125 46.539062 22.652344 46.871094 22.898438 C 47.203125 23.148438 47.632812 23.265625 48.074219 23.199219 C 48.515625 23.132812 48.890625 22.894531 49.136719 22.5625 C 49.382812 22.230469 49.5 21.800781 49.433594 21.359375 C 49.367188 20.917969 49.128906 20.542969 48.796875 20.296875 C 48.589844 20.144531 48.34375 20.039062 48.082031 20 L 47.929688 18.976562 L 50.105469 18.648438 C 50.503906 18.589844 50.882812 18.492188 51.246094 18.363281 C 51.347656 18.703125 51.425781 19.035156 51.476562 19.359375 C 51.648438 20.4375 51.546875 21.425781 51.175781 22.226562 Z M 47.667969 20.476562 C 47.976562 20.429688 48.277344 20.511719 48.511719 20.6875 C 48.742188 20.859375 48.910156 21.121094 48.957031 21.433594 C 49.003906 21.742188 48.921875 22.042969 48.75 22.277344 C 48.574219 22.511719 48.3125 22.679688 48.003906 22.726562 C 47.691406 22.769531 47.390625 22.6875 47.160156 22.515625 C 46.925781 22.339844 46.757812 22.078125 46.710938 21.769531 C 46.664062 21.457031 46.746094 21.160156 46.921875 20.925781 C 47.09375 20.691406 47.355469 20.523438 47.667969 20.476562 Z M 53.980469 11.984375 C 54.175781 13.292969 53.816406 14.5625 53.082031 15.554688 C 52.347656 16.550781 51.238281 17.261719 49.929688 17.457031 L 44.570312 18.261719 C 41.953125 18.652344 39.488281 16.828125 39.09375 14.210938 L 39.007812 13.613281 C 38.808594 12.304688 39.167969 11.035156 39.902344 10.042969 C 40.636719 9.046875 41.746094 8.335938 43.054688 8.136719 L 48.414062 7.335938 C 51.035156 6.945312 53.5 8.769531 53.890625 11.386719 Z M 51.902344 11.765625 L 51.964844 12.203125 C 52.109375 13.160156 51.847656 14.085938 51.3125 14.8125 C 50.773438 15.539062 49.960938 16.0625 49.003906 16.203125 L 45.089844 16.789062 C 43.171875 17.078125 41.371094 15.746094 41.085938 13.828125 L 41.019531 13.394531 C 40.878906 12.4375 41.136719 11.507812 41.675781 10.78125 C 42.210938 10.058594 43.023438 9.535156 43.980469 9.390625 L 47.898438 8.804688 C 49.8125 8.519531 51.613281 9.851562 51.902344 11.765625 Z M 51.902344 11.765625 " fill-opacity="1" fill-rule="evenodd"></path>
      </g>
    </g>
  </g>
  <g clip-path="url(#21a0970f25)">
    <g clip-path="url(#2733cb3e20)">
      <g clip-path="url(#9abeee9f91)">
        <path fill="#ffffff" d="M 48.511719 20.6875 C 48.742188 20.859375 48.910156 21.121094 48.957031 21.429688 C 49.003906 21.742188 48.921875 22.042969 48.75 22.277344 C 48.574219 22.511719 48.3125 22.679688 48.003906 22.722656 C 47.691406 22.769531 47.390625 22.6875 47.15625 22.515625 C 46.925781 22.339844 46.757812 22.078125 46.710938 21.769531 C 46.664062 21.457031 46.746094 21.15625 46.921875 20.921875 C 47.09375 20.691406 47.355469 20.523438 47.664062 20.476562 C 47.976562 20.429688 48.277344 20.511719 48.511719 20.6875 Z M 44.429688 12.09375 C 44.21875 12.023438 44 12.011719 43.789062 12.046875 C 43.582031 12.082031 43.382812 12.167969 43.207031 12.296875 C 42.8125 12.585938 42.542969 13.085938 42.582031 13.722656 C 42.585938 13.785156 42.613281 13.839844 42.664062 13.878906 C 42.714844 13.917969 42.773438 13.933594 42.835938 13.921875 L 42.882812 13.914062 C 42.992188 13.894531 43.066406 13.796875 43.0625 13.6875 C 43.035156 13.230469 43.21875 12.882812 43.488281 12.683594 C 43.605469 12.601562 43.734375 12.542969 43.871094 12.519531 C 44.003906 12.496094 44.144531 12.507812 44.28125 12.550781 C 44.609375 12.660156 44.910156 12.988281 45.058594 13.59375 C 45.082031 13.703125 45.191406 13.773438 45.304688 13.757812 L 45.347656 13.75 C 45.410156 13.738281 45.460938 13.707031 45.492188 13.65625 C 45.527344 13.601562 45.539062 13.546875 45.523438 13.484375 C 45.335938 12.691406 44.902344 12.253906 44.429688 12.09375 Z M 49.546875 11.347656 C 49.34375 11.277344 49.128906 11.253906 48.917969 11.28125 C 48.707031 11.308594 48.5 11.386719 48.320312 11.515625 C 47.914062 11.804688 47.628906 12.347656 47.679688 13.164062 C 47.683594 13.226562 47.710938 13.277344 47.757812 13.316406 C 47.808594 13.355469 47.863281 13.371094 47.925781 13.363281 L 47.972656 13.359375 C 48.085938 13.34375 48.164062 13.242188 48.160156 13.128906 C 48.121094 12.507812 48.316406 12.105469 48.597656 11.90625 C 48.714844 11.824219 48.84375 11.773438 48.980469 11.757812 C 49.117188 11.738281 49.257812 11.753906 49.390625 11.800781 C 49.707031 11.910156 49.984375 12.191406 50.09375 12.636719 C 50.121094 12.746094 50.222656 12.8125 50.332031 12.800781 L 50.378906 12.792969 C 50.441406 12.785156 50.496094 12.753906 50.53125 12.703125 C 50.566406 12.648438 50.578125 12.589844 50.5625 12.527344 C 50.414062 11.90625 50.007812 11.507812 49.546875 11.347656 Z M 49.546875 11.347656 " fill-opacity="1" fill-rule="nonzero"></path>
      </g>
    </g>
  </g>
</svg>
